<svg id="Layer_1" enable-background="new 0 0 510.953 510.953" height="512" viewBox="0 0 510.953 510.953" width="512" xmlns="http://www.w3.org/2000/svg"><g><path id="XMLID_419_" d="m195.476 300.953c-69.418 0-126.681 52.644-134.162 120l74.162 90h120l15-92.5-15-72.5-30-45z" fill="#fd8956"/><path id="XMLID_361_" d="m449.638 420.953c-7.482-67.369-64.758-120-134.162-120h-30l-30 45v165h120z" fill="#e5364c"/><path id="XMLID_312_" d="m225.476 266.586v49.367c0 16.57 13.43 30 30 30l7.5-45.5-7.5-29.5-16.125-11.5z" fill="#fec3a8"/><path id="XMLID_292_" d="m285.476 315.953c0-12.75 0-30.773 0-49.369l-15-5.631-15 10v75c16.569 0 30-13.43 30-30z" fill="#feab9b"/><path id="XMLID_288_" d="m60.476 450.953v60h75v-60l-37.5-10z" fill="#fed9b6"/><path id="XMLID_270_" d="m61.313 420.953c-1.258 11.32-.698 17.914-.838 30h75c0-10.492 0-19.508 0-30z" fill="#e5364c"/><path id="XMLID_246_" d="m375.476 510.953h75c0-7.259 0-52.693 0-60l-37.5-10-37.5 10z" fill="#fec3a8"/><path id="XMLID_241_" d="m450.476 450.953c-.051-14.066.284-19.902-.838-30-8.994 0-65.135 0-74.162 0v30" fill="#bc203d"/><g id="XMLID_3251_"><path id="XMLID_3253_" d="m150.476 121v45c0 57.896 47.101 105 105 105l20.5-86-20.5-64-66.5-10z" fill="#fed9b6"/><path id="XMLID_3252_" d="m360.476 166c0-14.98 0-30.018 0-45l-48.333-22.332-56.667 22.332v150c57.895 0 105-47.102 105-105z" fill="#fec3a8"/></g><g id="XMLID_3238_"><g><g id="XMLID_652_"><path d="m225.476 0c-41.354 0-75 33.645-75 75v46h105l11-39-11-82c-10.493 0-19.508 0-30 0z" fill="#66c2fe"/></g><path id="XMLID_614_" d="m420.476 121c0-10.492 0-19.508 0-30-7.259 0-52.693 0-60 0 0-14.98 0-1.018 0-16 0-41.354-33.643-75-75-75-10.492 0-19.508 0-30 0v121z" fill="#4a9ffd"/></g></g></g></svg>