<svg id="Capa_1" enable-background="new 0 0 512 512" height="512" viewBox="0 0 512 512" width="512" xmlns="http://www.w3.org/2000/svg"><g><path d="m0 0v512h512v-512zm481.312 240.802h-210.114v-210.114h210.113v210.114zm-240.51-210.114v210.113h-210.114v-210.113zm-210.114 240.51h210.114v210.113h-210.114zm240.51 210.114v-210.114h210.113v210.113h-210.113z"/><path d="m120.547 201.227h30.397v-50.284h50.283v-30.396h-50.283v-50.284h-30.397v50.284h-50.284v30.396h50.284z"/><path d="m310.459 361.057h130.964v30.396h-130.964z"/><path d="m193.109 340.699-21.494-21.494-35.556 35.556-35.555-35.556-21.494 21.494 35.555 35.556-35.555 35.556 21.494 21.494 35.555-35.556 35.556 35.556 21.494-21.494-35.556-35.556z"/><path d="m310.459 120.547h130.964v30.396h-130.964z"/><path d="m360.519 300.035h30.846v30.396h-30.846z"/><path d="m360.519 420.652h30.846v30.396h-30.846z"/></g></svg>