<?xml version="1.0" encoding="iso-8859-1"?>
<!-- Generator: Adobe Illustrator 19.0.0, SVG Export Plug-In . SVG Version: 6.00 Build 0)  -->
<svg version="1.1" id="Capa_1" xmlns="http://www.w3.org/2000/svg" xmlns:xlink="http://www.w3.org/1999/xlink" x="0px" y="0px"
	 viewBox="0 0 512 512" style="enable-background:new 0 0 512 512;" xml:space="preserve">
<g>
	<g>
		<path d="M469.333,64H42.667C19.093,64,0,83.093,0,106.667v298.667C0,428.907,19.093,448,42.667,448h426.667
			c23.573,0,42.453-19.093,42.453-42.667L512,106.667C512,83.093,492.907,64,469.333,64z M170.667,128c35.307,0,64,28.693,64,64
			c0,35.413-28.693,64-64,64c-35.307,0-64-28.587-64-64C106.667,156.693,135.36,128,170.667,128z M298.667,384h-256v-21.333
			c0-42.667,85.333-66.133,128-66.133c42.667,0,128,23.467,128,66.133V384z M380.8,298.667h34.987L448,341.333l-42.56,42.56
			c-27.84-20.907-48.64-50.667-58.24-85.227c-3.733-13.653-5.867-27.84-5.867-42.667s2.133-29.013,5.973-42.667
			c9.493-34.56,30.293-64.32,58.24-85.227L448,170.667l-32.213,42.667H380.8c-4.693,13.333-7.467,27.733-7.467,42.667
			S376,285.333,380.8,298.667z"/>
	</g>
</g>
<g>
</g>
<g>
</g>
<g>
</g>
<g>
</g>
<g>
</g>
<g>
</g>
<g>
</g>
<g>
</g>
<g>
</g>
<g>
</g>
<g>
</g>
<g>
</g>
<g>
</g>
<g>
</g>
<g>
</g>
</svg>
